<mxfile host="app.diagrams.net" modified="2024-06-06T16:02:07.109Z" agent="Mozilla/5.0 (Windows NT 10.0; Win64; x64) AppleWebKit/537.36 (KHTML, like Gecko) Chrome/125.0.0.0 Safari/537.36" etag="XxN5PfrP9mX3Pvo0H26U" version="24.4.15" type="github">
  <diagram name="第 1 页" id="4Y8WC2sQ6RazD_0krHGV">
    <mxGraphModel dx="673" dy="773" grid="1" gridSize="10" guides="1" tooltips="1" connect="1" arrows="1" fold="1" page="1" pageScale="1" pageWidth="827" pageHeight="1169" math="0" shadow="0">
      <root>
        <mxCell id="0" />
        <mxCell id="1" parent="0" />
        <mxCell id="kQYI67vCcpKh5l2N6lij-86" value="&lt;font style=&quot;font-size: 12px;&quot;&gt;贸易销售流程&lt;/font&gt;" style="swimlane;html=1;childLayout=stackLayout;startSize=20;rounded=0;shadow=0;labelBackgroundColor=none;strokeWidth=1;fontFamily=Verdana;fontSize=8;align=center;" vertex="1" parent="1">
          <mxGeometry x="1070" y="1140" width="1610" height="600" as="geometry" />
        </mxCell>
        <mxCell id="kQYI67vCcpKh5l2N6lij-87" value="客户" style="swimlane;html=1;startSize=20;" vertex="1" parent="kQYI67vCcpKh5l2N6lij-86">
          <mxGeometry y="20" width="260" height="580" as="geometry" />
        </mxCell>
        <mxCell id="kQYI67vCcpKh5l2N6lij-88" value="&lt;span style=&quot;font-size: 10px;&quot;&gt;纯产品贸易需求&lt;/span&gt;" style="rounded=1;whiteSpace=wrap;html=1;shadow=0;labelBackgroundColor=none;strokeWidth=1;fontFamily=Verdana;fontSize=8;align=center;" vertex="1" parent="kQYI67vCcpKh5l2N6lij-87">
          <mxGeometry x="80" y="30" width="100" height="60" as="geometry" />
        </mxCell>
        <mxCell id="kQYI67vCcpKh5l2N6lij-89" value="&lt;span style=&quot;font-size: 10px;&quot;&gt;收到产品&lt;/span&gt;" style="rounded=1;whiteSpace=wrap;html=1;shadow=0;labelBackgroundColor=none;strokeWidth=1;fontFamily=Verdana;fontSize=8;align=center;" vertex="1" parent="kQYI67vCcpKh5l2N6lij-87">
          <mxGeometry x="80" y="400" width="100" height="60" as="geometry" />
        </mxCell>
        <mxCell id="kQYI67vCcpKh5l2N6lij-90" style="edgeStyle=orthogonalEdgeStyle;rounded=1;html=1;labelBackgroundColor=none;startArrow=none;startFill=0;startSize=5;endArrow=classicThin;endFill=1;endSize=5;jettySize=auto;orthogonalLoop=1;strokeWidth=1;fontFamily=Verdana;fontSize=8" edge="1" parent="kQYI67vCcpKh5l2N6lij-86" source="kQYI67vCcpKh5l2N6lij-88" target="kQYI67vCcpKh5l2N6lij-101">
          <mxGeometry relative="1" as="geometry" />
        </mxCell>
        <mxCell id="kQYI67vCcpKh5l2N6lij-91" style="edgeStyle=orthogonalEdgeStyle;rounded=1;html=1;labelBackgroundColor=none;startArrow=none;startFill=0;startSize=5;endArrow=classicThin;endFill=1;endSize=5;jettySize=auto;orthogonalLoop=1;strokeWidth=1;fontFamily=Verdana;fontSize=8" edge="1" parent="kQYI67vCcpKh5l2N6lij-86">
          <mxGeometry relative="1" as="geometry">
            <mxPoint x="510" y="290" as="targetPoint" />
          </mxGeometry>
        </mxCell>
        <mxCell id="kQYI67vCcpKh5l2N6lij-92" style="edgeStyle=orthogonalEdgeStyle;rounded=1;html=1;labelBackgroundColor=none;startArrow=none;startFill=0;startSize=5;endArrow=classicThin;endFill=1;endSize=5;jettySize=auto;orthogonalLoop=1;strokeWidth=1;fontFamily=Verdana;fontSize=8" edge="1" parent="kQYI67vCcpKh5l2N6lij-86">
          <mxGeometry relative="1" as="geometry">
            <mxPoint x="600" y="690" as="sourcePoint" />
          </mxGeometry>
        </mxCell>
        <mxCell id="kQYI67vCcpKh5l2N6lij-93" style="edgeStyle=orthogonalEdgeStyle;rounded=1;html=1;labelBackgroundColor=none;startArrow=none;startFill=0;startSize=5;endArrow=classicThin;endFill=1;endSize=5;jettySize=auto;orthogonalLoop=1;strokeWidth=1;fontFamily=Verdana;fontSize=8" edge="1" parent="kQYI67vCcpKh5l2N6lij-86">
          <mxGeometry relative="1" as="geometry">
            <mxPoint x="770" y="690" as="sourcePoint" />
          </mxGeometry>
        </mxCell>
        <mxCell id="kQYI67vCcpKh5l2N6lij-94" style="edgeStyle=orthogonalEdgeStyle;rounded=1;html=1;labelBackgroundColor=none;startArrow=none;startFill=0;startSize=5;endArrow=classicThin;endFill=1;endSize=5;jettySize=auto;orthogonalLoop=1;strokeWidth=1;fontFamily=Verdana;fontSize=8" edge="1" parent="kQYI67vCcpKh5l2N6lij-86">
          <mxGeometry relative="1" as="geometry">
            <mxPoint x="610" y="450.0000000000001" as="sourcePoint" />
          </mxGeometry>
        </mxCell>
        <mxCell id="kQYI67vCcpKh5l2N6lij-95" style="edgeStyle=orthogonalEdgeStyle;rounded=1;html=1;labelBackgroundColor=none;startArrow=none;startFill=0;startSize=5;endArrow=classicThin;endFill=1;endSize=5;jettySize=auto;orthogonalLoop=1;strokeWidth=1;fontFamily=Verdana;fontSize=8" edge="1" parent="kQYI67vCcpKh5l2N6lij-86">
          <mxGeometry relative="1" as="geometry">
            <Array as="points">
              <mxPoint x="660" y="610" />
              <mxPoint x="660" y="550" />
              <mxPoint x="400" y="550" />
            </Array>
            <mxPoint x="670" y="610" as="sourcePoint" />
          </mxGeometry>
        </mxCell>
        <mxCell id="kQYI67vCcpKh5l2N6lij-96" style="edgeStyle=orthogonalEdgeStyle;rounded=1;html=1;labelBackgroundColor=none;startArrow=none;startFill=0;startSize=5;endArrow=classicThin;endFill=1;endSize=5;jettySize=auto;orthogonalLoop=1;strokeColor=#000000;strokeWidth=1;fontFamily=Verdana;fontSize=8;fontColor=#000000;" edge="1" parent="kQYI67vCcpKh5l2N6lij-86">
          <mxGeometry relative="1" as="geometry">
            <mxPoint x="670" y="610" as="sourcePoint" />
          </mxGeometry>
        </mxCell>
        <mxCell id="kQYI67vCcpKh5l2N6lij-97" style="edgeStyle=orthogonalEdgeStyle;rounded=1;html=1;labelBackgroundColor=none;startArrow=none;startFill=0;startSize=5;endArrow=classicThin;endFill=1;endSize=5;jettySize=auto;orthogonalLoop=1;strokeWidth=1;fontFamily=Verdana;fontSize=8" edge="1" parent="kQYI67vCcpKh5l2N6lij-86">
          <mxGeometry relative="1" as="geometry">
            <Array as="points">
              <mxPoint x="660" y="610" />
              <mxPoint x="660" y="550" />
              <mxPoint x="80" y="550" />
            </Array>
            <mxPoint x="670" y="610" as="sourcePoint" />
          </mxGeometry>
        </mxCell>
        <mxCell id="kQYI67vCcpKh5l2N6lij-98" style="edgeStyle=orthogonalEdgeStyle;rounded=1;html=1;labelBackgroundColor=none;startArrow=none;startFill=0;startSize=5;endArrow=classicThin;endFill=1;endSize=5;jettySize=auto;orthogonalLoop=1;strokeWidth=1;fontFamily=Verdana;fontSize=8" edge="1" parent="kQYI67vCcpKh5l2N6lij-86">
          <mxGeometry relative="1" as="geometry">
            <Array as="points">
              <mxPoint x="80" y="650" />
              <mxPoint x="490" y="650" />
              <mxPoint x="490" y="610" />
            </Array>
            <mxPoint x="510" y="610" as="targetPoint" />
          </mxGeometry>
        </mxCell>
        <mxCell id="kQYI67vCcpKh5l2N6lij-99" style="edgeStyle=orthogonalEdgeStyle;rounded=1;html=1;labelBackgroundColor=none;startArrow=none;startFill=0;startSize=5;endArrow=classicThin;endFill=1;endSize=5;jettySize=auto;orthogonalLoop=1;strokeWidth=1;fontFamily=Verdana;fontSize=8" edge="1" parent="kQYI67vCcpKh5l2N6lij-86">
          <mxGeometry relative="1" as="geometry">
            <mxPoint x="510" y="610" as="targetPoint" />
          </mxGeometry>
        </mxCell>
        <mxCell id="kQYI67vCcpKh5l2N6lij-100" value="销售" style="swimlane;html=1;startSize=20;" vertex="1" parent="kQYI67vCcpKh5l2N6lij-86">
          <mxGeometry x="260" y="20" width="280" height="580" as="geometry" />
        </mxCell>
        <mxCell id="kQYI67vCcpKh5l2N6lij-101" value="&lt;font style=&quot;font-size: 10px;&quot;&gt;了解初步需求后,和综管确认是否有库存&lt;/font&gt;" style="rounded=1;whiteSpace=wrap;html=1;shadow=0;labelBackgroundColor=none;strokeWidth=1;fontFamily=Verdana;fontSize=8;align=center;" vertex="1" parent="kQYI67vCcpKh5l2N6lij-100">
          <mxGeometry x="90" y="30" width="100" height="60" as="geometry" />
        </mxCell>
        <mxCell id="kQYI67vCcpKh5l2N6lij-102" value="&lt;span style=&quot;font-size: 10px;&quot;&gt;产品交给客户&lt;/span&gt;" style="rounded=1;whiteSpace=wrap;html=1;shadow=0;labelBackgroundColor=none;strokeWidth=1;fontFamily=Verdana;fontSize=8;align=center;" vertex="1" parent="kQYI67vCcpKh5l2N6lij-100">
          <mxGeometry x="90" y="400" width="100" height="60" as="geometry" />
        </mxCell>
        <mxCell id="kQYI67vCcpKh5l2N6lij-103" value="&lt;span style=&quot;font-size: 10px;&quot;&gt;&lt;font color=&quot;#ff0000&quot;&gt;贸易销售合同&lt;/font&gt;&lt;/span&gt;" style="rounded=1;whiteSpace=wrap;html=1;shadow=0;labelBackgroundColor=none;strokeWidth=1;fontFamily=Verdana;fontSize=8;align=center;" vertex="1" parent="kQYI67vCcpKh5l2N6lij-100">
          <mxGeometry x="90" y="140" width="100" height="60" as="geometry" />
        </mxCell>
        <mxCell id="kQYI67vCcpKh5l2N6lij-104" value="五楼仓库" style="swimlane;html=1;startSize=20;" vertex="1" parent="kQYI67vCcpKh5l2N6lij-86">
          <mxGeometry x="540" y="20" width="160" height="580" as="geometry" />
        </mxCell>
        <mxCell id="kQYI67vCcpKh5l2N6lij-105" style="edgeStyle=orthogonalEdgeStyle;rounded=1;html=1;labelBackgroundColor=none;startArrow=none;startFill=0;startSize=5;endArrow=classicThin;endFill=1;endSize=5;jettySize=auto;orthogonalLoop=1;strokeWidth=1;fontFamily=Verdana;fontSize=8" edge="1" parent="kQYI67vCcpKh5l2N6lij-104">
          <mxGeometry relative="1" as="geometry">
            <mxPoint x="80" y="240" as="targetPoint" />
          </mxGeometry>
        </mxCell>
        <mxCell id="kQYI67vCcpKh5l2N6lij-106" value="&lt;font style=&quot;font-size: 10px;&quot;&gt;产品出库&lt;/font&gt;" style="rounded=1;whiteSpace=wrap;html=1;shadow=0;labelBackgroundColor=none;strokeWidth=1;fontFamily=Verdana;fontSize=8;align=center;" vertex="1" parent="kQYI67vCcpKh5l2N6lij-104">
          <mxGeometry x="30" y="340" width="100" height="60" as="geometry" />
        </mxCell>
        <mxCell id="kQYI67vCcpKh5l2N6lij-107" value="&lt;font style=&quot;font-size: 10px;&quot;&gt;收到产品,五楼库存数量记录到Excel,并通知六楼今天到了什么产品&lt;/font&gt;" style="rounded=1;whiteSpace=wrap;html=1;shadow=0;labelBackgroundColor=none;strokeWidth=1;fontFamily=Verdana;fontSize=8;align=center;" vertex="1" parent="kQYI67vCcpKh5l2N6lij-104">
          <mxGeometry x="30" y="460" width="100" height="60" as="geometry" />
        </mxCell>
        <mxCell id="kQYI67vCcpKh5l2N6lij-108" value="综管部" style="swimlane;html=1;startSize=20;" vertex="1" parent="kQYI67vCcpKh5l2N6lij-86">
          <mxGeometry x="700" y="20" width="430" height="580" as="geometry" />
        </mxCell>
        <mxCell id="kQYI67vCcpKh5l2N6lij-109" style="edgeStyle=orthogonalEdgeStyle;rounded=1;html=1;labelBackgroundColor=none;startArrow=none;startFill=0;startSize=5;endArrow=classicThin;endFill=1;endSize=5;jettySize=auto;orthogonalLoop=1;strokeWidth=1;fontFamily=Verdana;fontSize=8" edge="1" parent="kQYI67vCcpKh5l2N6lij-108">
          <mxGeometry relative="1" as="geometry">
            <mxPoint x="80" y="460.0000000000001" as="sourcePoint" />
          </mxGeometry>
        </mxCell>
        <mxCell id="kQYI67vCcpKh5l2N6lij-110" style="edgeStyle=orthogonalEdgeStyle;rounded=1;html=1;labelBackgroundColor=none;startArrow=none;startFill=0;startSize=5;endArrow=classicThin;endFill=1;endSize=5;jettySize=auto;orthogonalLoop=1;strokeWidth=1;fontFamily=Verdana;fontSize=8" edge="1" parent="kQYI67vCcpKh5l2N6lij-108">
          <mxGeometry relative="1" as="geometry">
            <mxPoint x="80" y="540" as="sourcePoint" />
          </mxGeometry>
        </mxCell>
        <mxCell id="kQYI67vCcpKh5l2N6lij-111" value="&lt;font style=&quot;font-size: 10px;&quot;&gt;查询产品库存&lt;/font&gt;" style="rounded=1;whiteSpace=wrap;html=1;shadow=0;labelBackgroundColor=none;strokeWidth=1;fontFamily=Verdana;fontSize=8;align=center;" vertex="1" parent="kQYI67vCcpKh5l2N6lij-108">
          <mxGeometry x="80" y="30" width="100" height="60" as="geometry" />
        </mxCell>
        <mxCell id="kQYI67vCcpKh5l2N6lij-112" value="&lt;font style=&quot;font-size: 10px;&quot;&gt;有库存,可以走合同&lt;/font&gt;" style="rounded=1;whiteSpace=wrap;html=1;shadow=0;labelBackgroundColor=none;strokeWidth=1;fontFamily=Verdana;fontSize=8;align=center;" vertex="1" parent="kQYI67vCcpKh5l2N6lij-108">
          <mxGeometry x="20" y="160" width="100" height="60" as="geometry" />
        </mxCell>
        <mxCell id="kQYI67vCcpKh5l2N6lij-113" value="&lt;span style=&quot;font-size: 10px;&quot;&gt;无库存,询问供应商是否有货，并评估是否需要进行采购&lt;/span&gt;" style="rounded=1;whiteSpace=wrap;html=1;shadow=0;labelBackgroundColor=none;strokeWidth=1;fontFamily=Verdana;fontSize=8;align=center;" vertex="1" parent="kQYI67vCcpKh5l2N6lij-108">
          <mxGeometry x="150" y="160" width="100" height="60" as="geometry" />
        </mxCell>
        <mxCell id="kQYI67vCcpKh5l2N6lij-114" value="" style="endArrow=classic;html=1;rounded=0;exitX=0.5;exitY=1;exitDx=0;exitDy=0;entryX=0.5;entryY=0;entryDx=0;entryDy=0;" edge="1" parent="kQYI67vCcpKh5l2N6lij-108" source="kQYI67vCcpKh5l2N6lij-111" target="kQYI67vCcpKh5l2N6lij-112">
          <mxGeometry width="50" height="50" relative="1" as="geometry">
            <mxPoint x="160" y="140" as="sourcePoint" />
            <mxPoint x="210" y="90" as="targetPoint" />
            <Array as="points">
              <mxPoint x="130" y="110" />
              <mxPoint x="70" y="110" />
            </Array>
          </mxGeometry>
        </mxCell>
        <mxCell id="kQYI67vCcpKh5l2N6lij-115" value="有" style="edgeLabel;html=1;align=center;verticalAlign=middle;resizable=0;points=[];" vertex="1" connectable="0" parent="kQYI67vCcpKh5l2N6lij-114">
          <mxGeometry x="-0.2185" y="-1" relative="1" as="geometry">
            <mxPoint as="offset" />
          </mxGeometry>
        </mxCell>
        <mxCell id="kQYI67vCcpKh5l2N6lij-116" value="" style="endArrow=classic;html=1;rounded=0;exitX=0.5;exitY=1;exitDx=0;exitDy=0;entryX=0.5;entryY=0;entryDx=0;entryDy=0;" edge="1" parent="kQYI67vCcpKh5l2N6lij-108" source="kQYI67vCcpKh5l2N6lij-111" target="kQYI67vCcpKh5l2N6lij-113">
          <mxGeometry width="50" height="50" relative="1" as="geometry">
            <mxPoint x="180" y="140" as="sourcePoint" />
            <mxPoint x="230" y="90" as="targetPoint" />
            <Array as="points">
              <mxPoint x="130" y="110" />
              <mxPoint x="200" y="110" />
            </Array>
          </mxGeometry>
        </mxCell>
        <mxCell id="kQYI67vCcpKh5l2N6lij-117" value="无" style="edgeLabel;html=1;align=center;verticalAlign=middle;resizable=0;points=[];" vertex="1" connectable="0" parent="kQYI67vCcpKh5l2N6lij-116">
          <mxGeometry x="0.0457" y="1" relative="1" as="geometry">
            <mxPoint as="offset" />
          </mxGeometry>
        </mxCell>
        <mxCell id="kQYI67vCcpKh5l2N6lij-118" value="&lt;span style=&quot;font-size: 10px;&quot;&gt;合同归档&lt;/span&gt;" style="rounded=1;whiteSpace=wrap;html=1;shadow=0;labelBackgroundColor=none;strokeWidth=1;fontFamily=Verdana;fontSize=8;align=center;" vertex="1" parent="kQYI67vCcpKh5l2N6lij-108">
          <mxGeometry x="80" y="250" width="100" height="60" as="geometry" />
        </mxCell>
        <mxCell id="kQYI67vCcpKh5l2N6lij-119" value="&lt;font style=&quot;font-size: 10px;&quot;&gt;开具产品出库单据&lt;/font&gt;" style="rounded=1;whiteSpace=wrap;html=1;shadow=0;labelBackgroundColor=none;strokeWidth=1;fontFamily=Verdana;fontSize=8;align=center;" vertex="1" parent="kQYI67vCcpKh5l2N6lij-108">
          <mxGeometry x="80" y="340" width="100" height="60" as="geometry" />
        </mxCell>
        <mxCell id="kQYI67vCcpKh5l2N6lij-120" value="" style="endArrow=classic;html=1;rounded=0;exitX=0.465;exitY=1.012;exitDx=0;exitDy=0;exitPerimeter=0;" edge="1" parent="kQYI67vCcpKh5l2N6lij-108" source="kQYI67vCcpKh5l2N6lij-118">
          <mxGeometry width="50" height="50" relative="1" as="geometry">
            <mxPoint x="240" y="310" as="sourcePoint" />
            <mxPoint x="127" y="340" as="targetPoint" />
          </mxGeometry>
        </mxCell>
        <mxCell id="kQYI67vCcpKh5l2N6lij-121" value="&lt;span style=&quot;font-size: 10px;&quot;&gt;找供应商采购&lt;/span&gt;" style="rounded=1;whiteSpace=wrap;html=1;shadow=0;labelBackgroundColor=none;strokeWidth=1;fontFamily=Verdana;fontSize=8;align=center;" vertex="1" parent="kQYI67vCcpKh5l2N6lij-108">
          <mxGeometry x="310" y="120" width="100" height="60" as="geometry" />
        </mxCell>
        <mxCell id="kQYI67vCcpKh5l2N6lij-122" value="&lt;span style=&quot;font-size: 10px;&quot;&gt;不采购,流程结束&lt;/span&gt;" style="rounded=1;whiteSpace=wrap;html=1;shadow=0;labelBackgroundColor=none;strokeWidth=1;fontFamily=Verdana;fontSize=8;align=center;" vertex="1" parent="kQYI67vCcpKh5l2N6lij-108">
          <mxGeometry x="310" y="200" width="100" height="60" as="geometry" />
        </mxCell>
        <mxCell id="kQYI67vCcpKh5l2N6lij-123" value="" style="endArrow=classic;html=1;rounded=0;" edge="1" parent="kQYI67vCcpKh5l2N6lij-108">
          <mxGeometry width="50" height="50" relative="1" as="geometry">
            <mxPoint x="250" y="190" as="sourcePoint" />
            <mxPoint x="310" y="150" as="targetPoint" />
            <Array as="points">
              <mxPoint x="290" y="190" />
              <mxPoint x="290" y="150" />
            </Array>
          </mxGeometry>
        </mxCell>
        <mxCell id="kQYI67vCcpKh5l2N6lij-124" value="采购" style="edgeLabel;html=1;align=center;verticalAlign=middle;resizable=0;points=[];" vertex="1" connectable="0" parent="kQYI67vCcpKh5l2N6lij-123">
          <mxGeometry x="0.312" y="-1" relative="1" as="geometry">
            <mxPoint as="offset" />
          </mxGeometry>
        </mxCell>
        <mxCell id="kQYI67vCcpKh5l2N6lij-125" value="" style="endArrow=classic;html=1;rounded=0;entryX=-0.016;entryY=0.56;entryDx=0;entryDy=0;entryPerimeter=0;" edge="1" parent="kQYI67vCcpKh5l2N6lij-108" target="kQYI67vCcpKh5l2N6lij-122">
          <mxGeometry width="50" height="50" relative="1" as="geometry">
            <mxPoint x="250" y="190" as="sourcePoint" />
            <mxPoint x="340" y="170" as="targetPoint" />
            <Array as="points">
              <mxPoint x="290" y="190" />
              <mxPoint x="290" y="234" />
            </Array>
          </mxGeometry>
        </mxCell>
        <mxCell id="kQYI67vCcpKh5l2N6lij-126" value="不采购" style="edgeLabel;html=1;align=center;verticalAlign=middle;resizable=0;points=[];" vertex="1" connectable="0" parent="kQYI67vCcpKh5l2N6lij-125">
          <mxGeometry x="0.2734" relative="1" as="geometry">
            <mxPoint as="offset" />
          </mxGeometry>
        </mxCell>
        <mxCell id="kQYI67vCcpKh5l2N6lij-127" value="&lt;span style=&quot;font-size: 10px;&quot;&gt;&lt;font color=&quot;#ff0000&quot;&gt;贸易采购合同&lt;/font&gt;&lt;/span&gt;" style="rounded=1;whiteSpace=wrap;html=1;shadow=0;labelBackgroundColor=none;strokeWidth=1;fontFamily=Verdana;fontSize=8;align=center;" vertex="1" parent="kQYI67vCcpKh5l2N6lij-108">
          <mxGeometry x="310" y="290" width="100" height="60" as="geometry" />
        </mxCell>
        <mxCell id="kQYI67vCcpKh5l2N6lij-128" value="" style="endArrow=classic;html=1;rounded=0;exitX=1.008;exitY=0.569;exitDx=0;exitDy=0;exitPerimeter=0;entryX=0.479;entryY=-0.028;entryDx=0;entryDy=0;entryPerimeter=0;" edge="1" parent="kQYI67vCcpKh5l2N6lij-108" source="kQYI67vCcpKh5l2N6lij-121" target="kQYI67vCcpKh5l2N6lij-127">
          <mxGeometry width="50" height="50" relative="1" as="geometry">
            <mxPoint x="470" y="160" as="sourcePoint" />
            <mxPoint x="520" y="110" as="targetPoint" />
            <Array as="points">
              <mxPoint x="420" y="154" />
              <mxPoint x="420" y="270" />
              <mxPoint x="358" y="270" />
            </Array>
          </mxGeometry>
        </mxCell>
        <mxCell id="kQYI67vCcpKh5l2N6lij-129" value="&lt;span style=&quot;font-size: 10px;&quot;&gt;录入合同信息、采购入库、销售出库数据到金蝶系统&lt;/span&gt;" style="rounded=1;whiteSpace=wrap;html=1;shadow=0;labelBackgroundColor=none;strokeWidth=1;fontFamily=Verdana;fontSize=8;align=center;" vertex="1" parent="kQYI67vCcpKh5l2N6lij-108">
          <mxGeometry x="200" y="390" width="100" height="60" as="geometry" />
        </mxCell>
        <mxCell id="kQYI67vCcpKh5l2N6lij-130" value="" style="endArrow=classic;html=1;rounded=0;exitX=1.038;exitY=0.506;exitDx=0;exitDy=0;exitPerimeter=0;entryX=0.569;entryY=-0.022;entryDx=0;entryDy=0;entryPerimeter=0;" edge="1" parent="kQYI67vCcpKh5l2N6lij-108" source="kQYI67vCcpKh5l2N6lij-118" target="kQYI67vCcpKh5l2N6lij-129">
          <mxGeometry width="50" height="50" relative="1" as="geometry">
            <mxPoint x="250" y="310" as="sourcePoint" />
            <mxPoint x="300" y="260" as="targetPoint" />
            <Array as="points">
              <mxPoint x="257" y="280" />
            </Array>
          </mxGeometry>
        </mxCell>
        <mxCell id="kQYI67vCcpKh5l2N6lij-131" value="&lt;font style=&quot;font-size: 10px;&quot;&gt;合同数据、采购数据等录入OA系统&lt;/font&gt;" style="rounded=1;whiteSpace=wrap;html=1;shadow=0;labelBackgroundColor=none;strokeWidth=1;fontFamily=Verdana;fontSize=8;align=center;" vertex="1" parent="kQYI67vCcpKh5l2N6lij-108">
          <mxGeometry x="80" y="510" width="100" height="60" as="geometry" />
        </mxCell>
        <mxCell id="kQYI67vCcpKh5l2N6lij-132" value="" style="endArrow=classic;html=1;rounded=0;exitX=1.008;exitY=0.55;exitDx=0;exitDy=0;exitPerimeter=0;" edge="1" parent="kQYI67vCcpKh5l2N6lij-108" source="kQYI67vCcpKh5l2N6lij-131">
          <mxGeometry width="50" height="50" relative="1" as="geometry">
            <mxPoint x="340" y="560" as="sourcePoint" />
            <mxPoint x="780" y="540" as="targetPoint" />
          </mxGeometry>
        </mxCell>
        <mxCell id="kQYI67vCcpKh5l2N6lij-133" value="供应商" style="swimlane;html=1;startSize=20;" vertex="1" parent="kQYI67vCcpKh5l2N6lij-86">
          <mxGeometry x="1130" y="20" width="160" height="580" as="geometry" />
        </mxCell>
        <mxCell id="kQYI67vCcpKh5l2N6lij-134" value="&lt;font style=&quot;font-size: 10px;&quot;&gt;合同盖章&lt;/font&gt;" style="rounded=1;whiteSpace=wrap;html=1;shadow=0;labelBackgroundColor=none;strokeWidth=1;fontFamily=Verdana;fontSize=8;align=center;" vertex="1" parent="kQYI67vCcpKh5l2N6lij-133">
          <mxGeometry x="40" y="290" width="100" height="60" as="geometry" />
        </mxCell>
        <mxCell id="kQYI67vCcpKh5l2N6lij-135" value="&lt;font style=&quot;font-size: 10px;&quot;&gt;产品出货&lt;/font&gt;" style="rounded=1;whiteSpace=wrap;html=1;shadow=0;labelBackgroundColor=none;strokeWidth=1;fontFamily=Verdana;fontSize=8;align=center;" vertex="1" parent="kQYI67vCcpKh5l2N6lij-133">
          <mxGeometry x="40" y="380" width="100" height="60" as="geometry" />
        </mxCell>
        <mxCell id="kQYI67vCcpKh5l2N6lij-136" value="" style="endArrow=classic;html=1;rounded=0;exitX=0.5;exitY=1;exitDx=0;exitDy=0;entryX=0.5;entryY=0;entryDx=0;entryDy=0;" edge="1" parent="kQYI67vCcpKh5l2N6lij-133" source="kQYI67vCcpKh5l2N6lij-134" target="kQYI67vCcpKh5l2N6lij-135">
          <mxGeometry width="50" height="50" relative="1" as="geometry">
            <mxPoint x="210" y="300" as="sourcePoint" />
            <mxPoint x="260" y="250" as="targetPoint" />
          </mxGeometry>
        </mxCell>
        <mxCell id="kQYI67vCcpKh5l2N6lij-137" value="" style="endArrow=classic;html=1;rounded=0;entryX=0;entryY=0.5;entryDx=0;entryDy=0;" edge="1" parent="kQYI67vCcpKh5l2N6lij-86" target="kQYI67vCcpKh5l2N6lij-111">
          <mxGeometry width="50" height="50" relative="1" as="geometry">
            <mxPoint x="450" y="80" as="sourcePoint" />
            <mxPoint x="510" y="80" as="targetPoint" />
            <Array as="points">
              <mxPoint x="470" y="80" />
              <mxPoint x="750" y="80" />
            </Array>
          </mxGeometry>
        </mxCell>
        <mxCell id="kQYI67vCcpKh5l2N6lij-138" value="财务(金蝶系统)" style="swimlane;html=1;startSize=20;" vertex="1" parent="kQYI67vCcpKh5l2N6lij-86">
          <mxGeometry x="1290" y="20" width="160" height="580" as="geometry" />
        </mxCell>
        <mxCell id="kQYI67vCcpKh5l2N6lij-139" value="&lt;span style=&quot;font-size: 10px;&quot;&gt;财务审核相关数据&lt;/span&gt;" style="rounded=1;whiteSpace=wrap;html=1;shadow=0;labelBackgroundColor=none;strokeWidth=1;fontFamily=Verdana;fontSize=8;align=center;" vertex="1" parent="kQYI67vCcpKh5l2N6lij-138">
          <mxGeometry x="30" y="440" width="100" height="60" as="geometry" />
        </mxCell>
        <mxCell id="kQYI67vCcpKh5l2N6lij-140" value="" style="endArrow=classic;html=1;rounded=0;exitX=0.5;exitY=1;exitDx=0;exitDy=0;entryX=1;entryY=0.5;entryDx=0;entryDy=0;" edge="1" parent="kQYI67vCcpKh5l2N6lij-86" source="kQYI67vCcpKh5l2N6lij-106" target="kQYI67vCcpKh5l2N6lij-102">
          <mxGeometry width="50" height="50" relative="1" as="geometry">
            <mxPoint x="410" y="560" as="sourcePoint" />
            <mxPoint x="460" y="510" as="targetPoint" />
            <Array as="points">
              <mxPoint x="620" y="450" />
            </Array>
          </mxGeometry>
        </mxCell>
        <mxCell id="kQYI67vCcpKh5l2N6lij-141" value="" style="endArrow=classic;html=1;rounded=0;exitX=0;exitY=0.5;exitDx=0;exitDy=0;entryX=1;entryY=0.5;entryDx=0;entryDy=0;entryPerimeter=0;" edge="1" parent="kQYI67vCcpKh5l2N6lij-86" source="kQYI67vCcpKh5l2N6lij-102" target="kQYI67vCcpKh5l2N6lij-89">
          <mxGeometry width="50" height="50" relative="1" as="geometry">
            <mxPoint x="220" y="640" as="sourcePoint" />
            <mxPoint x="270" y="590" as="targetPoint" />
          </mxGeometry>
        </mxCell>
        <mxCell id="kQYI67vCcpKh5l2N6lij-142" value="" style="endArrow=classic;html=1;rounded=0;exitX=0.5;exitY=1;exitDx=0;exitDy=0;entryX=1;entryY=0.5;entryDx=0;entryDy=0;" edge="1" parent="kQYI67vCcpKh5l2N6lij-86" source="kQYI67vCcpKh5l2N6lij-135" target="kQYI67vCcpKh5l2N6lij-107">
          <mxGeometry width="50" height="50" relative="1" as="geometry">
            <mxPoint x="840" y="410" as="sourcePoint" />
            <mxPoint x="890" y="360" as="targetPoint" />
            <Array as="points">
              <mxPoint x="1220" y="510" />
            </Array>
          </mxGeometry>
        </mxCell>
        <mxCell id="kQYI67vCcpKh5l2N6lij-144" value="" style="endArrow=classic;html=1;rounded=0;exitX=-0.005;exitY=0.657;exitDx=0;exitDy=0;exitPerimeter=0;entryX=1.037;entryY=0.492;entryDx=0;entryDy=0;entryPerimeter=0;" edge="1" parent="kQYI67vCcpKh5l2N6lij-86" source="kQYI67vCcpKh5l2N6lij-112" target="kQYI67vCcpKh5l2N6lij-103">
          <mxGeometry width="50" height="50" relative="1" as="geometry">
            <mxPoint x="580" y="220" as="sourcePoint" />
            <mxPoint x="630" y="170" as="targetPoint" />
            <Array as="points">
              <mxPoint x="710" y="220" />
              <mxPoint x="710" y="190" />
            </Array>
          </mxGeometry>
        </mxCell>
        <mxCell id="kQYI67vCcpKh5l2N6lij-145" value="" style="endArrow=classic;html=1;rounded=0;exitX=0.448;exitY=1.029;exitDx=0;exitDy=0;exitPerimeter=0;entryX=-0.031;entryY=0.529;entryDx=0;entryDy=0;entryPerimeter=0;" edge="1" parent="kQYI67vCcpKh5l2N6lij-86" source="kQYI67vCcpKh5l2N6lij-103" target="kQYI67vCcpKh5l2N6lij-118">
          <mxGeometry width="50" height="50" relative="1" as="geometry">
            <mxPoint x="610" y="290" as="sourcePoint" />
            <mxPoint x="660" y="240" as="targetPoint" />
            <Array as="points">
              <mxPoint x="395" y="300" />
            </Array>
          </mxGeometry>
        </mxCell>
        <mxCell id="kQYI67vCcpKh5l2N6lij-146" value="" style="endArrow=classic;html=1;rounded=0;entryX=1.008;entryY=0.492;entryDx=0;entryDy=0;entryPerimeter=0;" edge="1" parent="kQYI67vCcpKh5l2N6lij-86" target="kQYI67vCcpKh5l2N6lij-106">
          <mxGeometry width="50" height="50" relative="1" as="geometry">
            <mxPoint x="780" y="390" as="sourcePoint" />
            <mxPoint x="800" y="380" as="targetPoint" />
          </mxGeometry>
        </mxCell>
        <mxCell id="kQYI67vCcpKh5l2N6lij-147" value="" style="endArrow=classic;html=1;rounded=0;exitX=1.027;exitY=0.524;exitDx=0;exitDy=0;exitPerimeter=0;entryX=-0.02;entryY=0.524;entryDx=0;entryDy=0;entryPerimeter=0;" edge="1" parent="kQYI67vCcpKh5l2N6lij-86" source="kQYI67vCcpKh5l2N6lij-127" target="kQYI67vCcpKh5l2N6lij-134">
          <mxGeometry width="50" height="50" relative="1" as="geometry">
            <mxPoint x="1180" y="310" as="sourcePoint" />
            <mxPoint x="1230" y="260" as="targetPoint" />
          </mxGeometry>
        </mxCell>
        <mxCell id="kQYI67vCcpKh5l2N6lij-148" value="" style="endArrow=classic;html=1;rounded=0;exitX=0.495;exitY=0;exitDx=0;exitDy=0;exitPerimeter=0;entryX=0.45;entryY=-0.019;entryDx=0;entryDy=0;entryPerimeter=0;" edge="1" parent="kQYI67vCcpKh5l2N6lij-86" source="kQYI67vCcpKh5l2N6lij-121" target="kQYI67vCcpKh5l2N6lij-103">
          <mxGeometry width="50" height="50" relative="1" as="geometry">
            <mxPoint x="1050" y="120" as="sourcePoint" />
            <mxPoint x="1100" y="70" as="targetPoint" />
            <Array as="points">
              <mxPoint x="1060" y="120" />
              <mxPoint x="395" y="120" />
            </Array>
          </mxGeometry>
        </mxCell>
        <mxCell id="kQYI67vCcpKh5l2N6lij-149" value="" style="endArrow=classic;html=1;rounded=0;entryX=0.527;entryY=1.038;entryDx=0;entryDy=0;entryPerimeter=0;" edge="1" parent="kQYI67vCcpKh5l2N6lij-86" target="kQYI67vCcpKh5l2N6lij-119">
          <mxGeometry width="50" height="50" relative="1" as="geometry">
            <mxPoint x="620" y="479" as="sourcePoint" />
            <mxPoint x="820" y="440" as="targetPoint" />
            <Array as="points">
              <mxPoint x="620" y="460" />
              <mxPoint x="833" y="460" />
            </Array>
          </mxGeometry>
        </mxCell>
        <mxCell id="kQYI67vCcpKh5l2N6lij-150" value="" style="endArrow=classic;html=1;rounded=0;exitX=0.52;exitY=1.024;exitDx=0;exitDy=0;exitPerimeter=0;entryX=-0.024;entryY=0.524;entryDx=0;entryDy=0;entryPerimeter=0;" edge="1" parent="kQYI67vCcpKh5l2N6lij-86" source="kQYI67vCcpKh5l2N6lij-129" target="kQYI67vCcpKh5l2N6lij-139">
          <mxGeometry width="50" height="50" relative="1" as="geometry">
            <mxPoint x="1070" y="470" as="sourcePoint" />
            <mxPoint x="1120" y="420" as="targetPoint" />
            <Array as="points">
              <mxPoint x="952" y="490" />
            </Array>
          </mxGeometry>
        </mxCell>
        <mxCell id="kQYI67vCcpKh5l2N6lij-151" value="OA系统" style="swimlane;html=1;startSize=20;" vertex="1" parent="kQYI67vCcpKh5l2N6lij-86">
          <mxGeometry x="1450" y="20" width="160" height="580" as="geometry" />
        </mxCell>
        <mxCell id="kQYI67vCcpKh5l2N6lij-152" value="&lt;span style=&quot;font-size: 10px;&quot;&gt;记录相关数据&lt;/span&gt;" style="rounded=1;whiteSpace=wrap;html=1;shadow=0;labelBackgroundColor=none;strokeWidth=1;fontFamily=Verdana;fontSize=8;align=center;" vertex="1" parent="kQYI67vCcpKh5l2N6lij-151">
          <mxGeometry x="30" y="510" width="100" height="60" as="geometry" />
        </mxCell>
      </root>
    </mxGraphModel>
  </diagram>
</mxfile>
